<?xml version="1.0" standalone="no"?>
<!DOCTYPE svg PUBLIC "-//W3C//DTD SVG 20010904//EN"
 "http://www.w3.org/TR/2001/REC-SVG-20010904/DTD/svg10.dtd">
<svg version="1.0" xmlns="http://www.w3.org/2000/svg"
 width="98.000000pt" height="19.000000pt" viewBox="0 0 98.000000 19.000000"
 preserveAspectRatio="xMidYMid meet">

<g transform="translate(0.000000,19.000000) scale(0.100000,-0.100000)"
fill="#000000" stroke="none">
<path d="M70 163 c-25 -9 -50 -46 -50 -76 0 -52 70 -94 110 -66 11 8 7 9 -17
4 -26 -5 -37 -2 -58 19 -48 48 -21 106 48 106 31 0 38 3 27 10 -16 11 -36 12
-60 3z"/>
<path d="M283 95 c0 -44 2 -61 4 -37 2 23 2 59 0 80 -2 20 -4 1 -4 -43z"/>
<path d="M583 95 c0 -44 2 -69 4 -55 8 52 13 53 43 11 17 -22 33 -41 36 -41 7
0 -3 17 -32 57 l-24 32 27 33 27 33 -36 -34 -37 -34 -4 39 c-2 22 -4 3 -4 -41z"/>
<path d="M693 95 c0 -44 2 -61 4 -37 2 23 2 59 0 80 -2 20 -4 1 -4 -43z"/>
<path d="M166 91 c-35 -39 2 -86 58 -75 34 6 36 9 36 44 0 31 -4 39 -22 44
-38 10 -54 7 -72 -13z m72 -22 c4 -31 -20 -53 -46 -44 -44 13 -30 78 16 73 21
-2 28 -9 30 -29z"/>
<path d="M322 65 c12 -25 25 -45 28 -45 10 0 44 79 37 86 -3 3 -11 -11 -18
-30 -7 -20 -16 -36 -19 -36 -3 0 -12 16 -19 35 -7 19 -16 35 -22 35 -5 0 1
-20 13 -45z"/>
<path d="M451 63 l2 -48 6 40 c5 31 10 40 26 40 16 0 21 -9 26 -40 l7 -40 -2
45 c-1 43 -2 45 -33 48 l-33 3 1 -48z"/>
<path d="M730 91 c-15 -29 -12 -46 10 -66 21 -19 70 -14 70 6 0 8 -5 8 -15 -1
-17 -14 -51 -5 -59 15 -4 12 4 15 39 15 30 0 45 4 45 13 0 38 -71 52 -90 18z
m64 3 c28 -11 17 -24 -19 -24 -33 0 -43 8 -28 23 8 9 27 9 47 1z"/>
<path d="M843 65 c0 -27 2 -38 4 -22 2 15 2 37 0 50 -2 12 -4 0 -4 -28z"/>
<path d="M881 63 l2 -48 6 40 c5 31 10 40 26 40 16 0 21 -9 26 -40 l7 -40 -2
45 c-1 43 -2 45 -33 48 l-33 3 1 -48z"/>
<path d="M413 60 c0 -25 2 -35 4 -22 2 12 2 32 0 45 -2 12 -4 2 -4 -23z"/>
</g>
</svg>
