<?xml version="1.0" standalone="no"?>
<!DOCTYPE svg PUBLIC "-//W3C//DTD SVG 20010904//EN"
 "http://www.w3.org/TR/2001/REC-SVG-20010904/DTD/svg10.dtd">
<svg version="1.0" xmlns="http://www.w3.org/2000/svg"
 width="56.000000pt" height="38.000000pt" viewBox="0 0 56.000000 38.000000"
 preserveAspectRatio="xMidYMid meet">

<g transform="translate(0.000000,38.000000) scale(0.100000,-0.100000)"
fill="#000000" stroke="none">
<path d="M30 230 l0 -110 59 0 c41 0 65 5 75 16 20 20 21 68 1 84 -11 9 -13
16 -5 24 15 15 12 62 -6 80 -10 11 -34 16 -70 16 l-54 0 0 -110z m90 40 c0
-13 -7 -20 -20 -20 -13 0 -20 7 -20 20 0 13 7 20 20 20 13 0 20 -7 20 -20z m5
-85 c0 -13 -8 -21 -22 -23 -19 -3 -23 1 -23 23 0 22 4 26 23 23 14 -2 22 -10
22 -23z"/>
<path d="M243 325 c-44 -31 -54 -126 -19 -180 30 -46 112 -40 135 11 6 14 11
50 11 80 0 45 -4 59 -25 79 -28 29 -70 32 -102 10z m73 -46 c19 -32 0 -119
-27 -119 -32 0 -51 70 -29 111 12 21 45 26 56 8z"/>
<path d="M380 330 c0 -6 14 -37 30 -70 19 -37 30 -75 30 -100 0 -36 2 -40 25
-40 23 0 25 4 25 46 0 32 9 65 30 106 17 32 30 61 30 63 0 3 -11 5 -25 5 -19
0 -29 -9 -42 -35 -9 -19 -19 -35 -23 -35 -3 0 -12 16 -19 35 -9 27 -18 35 -37
35 -13 0 -24 -5 -24 -10z"/>
<path d="M30 60 c0 -36 3 -40 25 -40 14 0 25 5 25 10 0 6 -7 10 -15 10 -10 0
-15 10 -15 30 0 17 -4 30 -10 30 -5 0 -10 -18 -10 -40z"/>
<path d="M94 86 c-3 -9 -3 -28 0 -42 5 -20 12 -25 34 -22 24 3 27 7 27 38 0
31 -3 35 -28 38 -18 2 -29 -2 -33 -12z m46 -27 c0 -10 -7 -19 -15 -19 -15 0
-21 31 -9 43 11 10 24 -3 24 -24z"/>
<path d="M181 58 c1 -35 2 -38 8 -18 l7 25 12 -22 c19 -35 32 -28 32 17 0 22
-4 40 -10 40 -5 0 -10 -8 -10 -17 -1 -17 -1 -17 -11 0 -17 29 -29 19 -28 -25z"/>
<path d="M260 60 c0 -39 1 -41 28 -38 24 3 27 7 27 38 0 31 -3 35 -27 38 -27
3 -28 1 -28 -38z m40 0 c0 -11 -4 -20 -10 -20 -5 0 -10 9 -10 20 0 11 5 20 10
20 6 0 10 -9 10 -20z"/>
<path d="M344 86 c-11 -29 1 -61 23 -64 26 -4 47 29 38 58 -7 24 -53 28 -61 6z
m46 -21 c0 -19 -20 -29 -32 -17 -8 8 -7 16 2 26 14 17 30 12 30 -9z"/>
<path d="M420 60 c0 -41 19 -58 21 -17 l0 22 11 -23 c18 -36 38 -27 38 18 0
22 -4 40 -10 40 -5 0 -10 -10 -10 -22 l0 -22 -16 22 c-23 33 -34 27 -34 -18z"/>
</g>
</svg>
