<?xml version="1.0" standalone="no"?>
<!DOCTYPE svg PUBLIC "-//W3C//DTD SVG 20010904//EN"
 "http://www.w3.org/TR/2001/REC-SVG-20010904/DTD/svg10.dtd">
<svg version="1.0" xmlns="http://www.w3.org/2000/svg"
 width="51.000000pt" height="57.000000pt" viewBox="0 0 51.000000 57.000000"
 preserveAspectRatio="xMidYMid meet">

<g transform="translate(0.000000,57.000000) scale(0.100000,-0.100000)"
fill="#000000" stroke="none">
<path d="M230 500 c0 -40 -15 -54 -26 -25 -4 8 -10 12 -15 9 -5 -3 -6 1 -3 9
3 8 1 18 -5 22 -7 4 -11 -6 -11 -28 0 -47 -10 -52 -31 -17 -20 32 -26 35 -48
21 -12 -8 -12 -13 2 -35 23 -34 21 -44 -7 -42 -13 0 -22 4 -20 8 3 4 -5 12
-17 19 -24 12 -24 12 3 -43 13 -28 32 -40 22 -14 -3 8 -1 17 5 21 6 3 11 2 11
-4 0 -12 69 25 89 48 9 11 15 12 18 5 7 -20 43 -3 43 20 0 20 1 20 19 -3 l19
-24 4 41 c2 23 0 42 -4 42 -5 0 -8 -10 -8 -22 -1 -22 -2 -21 -16 5 -20 36 -24
34 -24 -13z m-114 -37 c-10 -10 -19 5 -10 18 6 11 8 11 12 0 2 -7 1 -15 -2
-18z m24 -23 c0 -5 -4 -10 -10 -10 -5 0 -10 5 -10 10 0 6 5 10 10 10 6 0 10
-4 10 -10z"/>
<path d="M316 522 c-2 -4 -6 -24 -10 -44 -6 -34 -5 -38 14 -38 11 0 34 -10 50
-22 29 -21 30 -21 50 -3 20 18 20 18 14 -16 l-7 -34 32 29 c17 16 28 32 25 35
-3 3 -13 -3 -21 -14 -15 -19 -15 -19 -10 11 8 43 -1 48 -30 16 -20 -22 -23
-23 -18 -7 16 46 16 52 -1 59 -12 5 -23 0 -35 -15 -16 -21 -16 -21 -12 8 4 24
1 31 -16 36 -12 3 -23 2 -25 -1z m34 -19 c-1 -25 -14 -53 -26 -53 -7 0 -11 7
-9 15 3 8 7 22 10 30 4 15 25 21 25 8z m48 -48 c-11 -25 -28 -34 -28 -14 0 6
5 19 11 30 15 28 31 13 17 -16z"/>
<path d="M251 404 c-1 -27 -56 -53 -74 -35 -16 16 -32 14 -17 -4 7 -9 9 -26 5
-45 -5 -23 -12 -30 -31 -30 -13 0 -24 -4 -24 -10 0 -5 11 -10 24 -10 18 0 25
-7 30 -32 3 -17 2 -36 -4 -42 -18 -18 -10 -29 9 -12 18 16 22 16 49 2 17 -9
33 -26 35 -38 4 -22 4 -21 6 2 2 36 56 57 83 33 10 -9 18 -11 18 -5 0 6 -7 15
-15 19 -24 14 2 73 32 73 13 0 23 5 23 10 0 6 -10 10 -22 10 -15 0 -27 10 -35
27 -11 22 -10 29 4 45 17 19 5 26 -14 7 -17 -17 -71 7 -76 34 l-4 22 -2 -21z
m-1 -80 c0 -17 -22 -14 -28 4 -2 7 3 12 12 12 9 0 16 -7 16 -16z m40 7 c0 -5
-7 -14 -15 -21 -13 -10 -15 -9 -15 9 0 12 6 21 15 21 8 0 15 -4 15 -9z m-74
-39 c-22 -5 -30 3 -21 18 5 8 11 7 22 -2 15 -12 14 -13 -1 -16z m104 7 c0 -5
-10 -9 -21 -9 -18 0 -19 2 -9 15 12 15 30 12 30 -6z m-55 -19 c3 -5 -1 -10 -9
-10 -9 0 -16 5 -16 10 0 6 4 10 9 10 6 0 13 -4 16 -10z m-45 -25 c-7 -8 -16
-15 -21 -15 -5 0 -9 7 -9 15 0 9 9 15 21 15 18 0 19 -2 9 -15z m100 6 c0 -18
-18 -21 -30 -6 -10 13 -9 15 9 15 11 0 21 -4 21 -9z m-70 -25 c0 -8 -4 -17 -9
-21 -12 -7 -24 12 -16 25 9 15 25 12 25 -4z m35 -6 c0 -7 -6 -15 -12 -17 -8
-3 -13 4 -13 17 0 13 5 20 13 18 6 -3 12 -11 12 -18z"/>
<path d="M152 128 c-15 -15 -16 -38 -2 -38 6 0 10 -7 10 -15 0 -18 -12 -19
-28 -3 -8 8 -12 8 -12 1 0 -16 32 -25 44 -13 7 7 7 16 -2 30 -17 28 -15 33 9
27 16 -4 18 -3 8 9 -14 17 -12 17 -27 2z"/>
<path d="M327 128 c-17 -12 -16 -15 2 -51 11 -21 22 -33 25 -28 4 5 1 13 -4
16 -8 5 -6 13 4 24 13 14 14 21 3 35 -10 14 -15 15 -30 4z m23 -18 c0 -5 -4
-10 -10 -10 -5 0 -10 5 -10 10 0 6 5 10 10 10 6 0 10 -4 10 -10z"/>
<path d="M202 104 c3 -3 2 -21 -2 -40 -4 -19 -4 -34 1 -34 5 0 9 7 9 15 0 8 7
15 16 15 11 0 14 -6 9 -20 -4 -11 -2 -20 4 -20 6 0 11 13 11 29 0 16 3 36 6
45 3 9 1 16 -5 16 -6 0 -11 -9 -11 -21 0 -12 -5 -19 -12 -16 -7 2 -12 11 -10
21 2 9 -3 16 -9 16 -7 0 -10 -2 -7 -6z"/>
<path d="M280 79 c5 -18 7 -36 4 -40 -3 -5 1 -9 9 -9 12 0 12 7 4 40 -6 22
-14 40 -18 40 -4 0 -4 -14 1 -31z"/>
</g>
</svg>
