<?xml version="1.0" standalone="no"?>
<!DOCTYPE svg PUBLIC "-//W3C//DTD SVG 20010904//EN"
 "http://www.w3.org/TR/2001/REC-SVG-20010904/DTD/svg10.dtd">
<svg version="1.0" xmlns="http://www.w3.org/2000/svg"
 width="69.000000pt" height="22.000000pt" viewBox="0 0 69.000000 22.000000"
 preserveAspectRatio="xMidYMid meet">

<g transform="translate(0.000000,22.000000) scale(0.100000,-0.100000)"
fill="#000000" stroke="none">
<path d="M15 115 l0 -95 48 0 c43 0 47 2 47 25 0 27 -17 34 -26 10 -11 -27
-34 -17 -34 15 0 27 2 30 25 24 22 -5 25 -3 25 21 0 24 -3 26 -25 21 -22 -6
-25 -3 -25 18 0 31 14 40 30 21 18 -22 30 -18 30 10 0 23 -4 25 -47 25 l-48 0
0 -95z"/>
<path d="M145 115 l0 -95 30 0 c58 0 79 36 69 116 -7 59 -21 74 -71 74 l-28 0
0 -95z m63 48 c13 -26 5 -94 -13 -112 -13 -14 -15 -8 -15 57 0 70 10 90 28 55z"/>
<path d="M265 188 c3 -13 14 -56 23 -96 17 -73 34 -94 40 -50 6 38 22 46 22
11 0 -18 5 -35 10 -38 13 -8 27 29 35 98 4 32 11 60 16 63 5 3 9 11 9 19 0 10
-14 14 -50 13 l-50 0 0 -35 c0 -21 -4 -32 -11 -28 -6 4 -7 19 -4 36 6 26 4 29
-20 29 -24 0 -26 -3 -20 -22z m115 -23 c0 -14 -4 -25 -10 -25 -5 0 -10 11 -10
25 0 14 5 25 10 25 6 0 10 -11 10 -25z"/>
<path d="M445 115 c0 -92 1 -95 23 -95 19 0 21 3 13 18 -9 17 -9 119 0 152 2
9 -4 16 -16 18 -19 3 -20 -3 -20 -93z"/>
<path d="M515 115 c0 -91 1 -95 22 -95 19 0 21 4 17 42 l-5 43 26 -49 c15 -27
30 -45 35 -40 5 5 10 51 13 102 4 91 3 92 -19 92 -22 0 -23 -3 -18 -47 l5 -48
-26 48 c-39 73 -50 62 -50 -48z"/>
</g>
</svg>
