<?xml version="1.0" standalone="no"?>
<!DOCTYPE svg PUBLIC "-//W3C//DTD SVG 20010904//EN"
 "http://www.w3.org/TR/2001/REC-SVG-20010904/DTD/svg10.dtd">
<svg version="1.0" xmlns="http://www.w3.org/2000/svg"
 width="84.000000pt" height="16.000000pt" viewBox="0 0 84.000000 16.000000"
 preserveAspectRatio="xMidYMid meet">

<g transform="translate(0.000000,16.000000) scale(0.100000,-0.100000)"
fill="#000000" stroke="none">
<path d="M27 133 c-4 -3 -7 -28 -7 -55 l0 -48 40 0 c45 0 55 17 14 22 -21 2
-28 9 -30 31 -2 24 1 27 27 27 19 0 29 5 29 15 0 10 -10 15 -33 15 -19 0 -37
-3 -40 -7z"/>
<path d="M127 133 c-4 -3 -7 -28 -7 -55 l0 -49 53 3 52 3 3 38 c2 21 -2 45 -9
53 -12 14 -80 20 -92 7z m57 -36 c16 -15 7 -42 -14 -42 -20 0 -30 26 -16 42
14 16 15 16 30 0z"/>
<path d="M240 85 c0 -42 3 -55 15 -55 11 0 15 11 15 40 0 29 4 40 15 40 11 0
15 -11 15 -40 0 -29 4 -40 15 -40 11 0 15 11 15 43 0 52 -13 67 -57 67 l-33 0
0 -55z"/>
<path d="M343 114 c18 -93 55 -114 76 -43 7 23 15 47 18 55 3 8 -1 14 -11 14
-9 0 -20 -16 -27 -42 l-12 -43 -11 39 c-14 48 -42 65 -33 20z"/>
<path d="M457 133 c-4 -3 -7 -28 -7 -55 l0 -48 40 0 c22 0 40 5 40 10 0 6 -11
10 -24 10 -14 0 -28 5 -31 10 -4 6 7 10 24 10 17 0 31 5 31 10 0 6 -11 10 -24
10 -14 0 -28 5 -31 10 -4 6 7 10 24 10 21 0 31 5 31 15 0 10 -10 15 -33 15
-19 0 -37 -3 -40 -7z"/>
<path d="M547 133 c-4 -3 -7 -28 -7 -55 0 -36 4 -48 15 -48 8 0 15 9 15 20 0
11 4 20 9 20 5 0 13 -9 16 -20 3 -11 13 -20 21 -20 11 0 12 4 4 19 -7 13 -7
22 0 26 16 10 12 52 -6 59 -21 8 -59 8 -67 -1z m53 -33 c0 -5 -7 -10 -15 -10
-8 0 -15 5 -15 10 0 6 7 10 15 10 8 0 15 -4 15 -10z"/>
<path d="M651 126 c-20 -24 -9 -51 22 -54 37 -4 35 -22 -3 -22 -16 0 -30 -5
-30 -11 0 -6 17 -9 43 -7 37 3 42 6 42 28 0 17 -6 26 -20 28 -36 7 -41 22 -6
22 22 0 31 4 29 13 -7 18 -63 21 -77 3z"/>
<path d="M751 126 c-7 -8 -11 -32 -9 -53 3 -37 4 -38 46 -41 25 -2 42 1 42 7
0 6 -13 11 -30 11 -16 0 -30 5 -30 10 0 6 14 10 30 10 17 0 30 5 30 10 0 6
-13 10 -30 10 -16 0 -30 5 -30 10 0 6 14 10 31 10 20 0 29 4 27 13 -6 18 -63
21 -77 3z"/>
</g>
</svg>
