<?xml version="1.0" standalone="no"?>
<!DOCTYPE svg PUBLIC "-//W3C//DTD SVG 20010904//EN"
 "http://www.w3.org/TR/2001/REC-SVG-20010904/DTD/svg10.dtd">
<svg version="1.0" xmlns="http://www.w3.org/2000/svg"
 width="83.000000pt" height="31.000000pt" viewBox="0 0 83.000000 31.000000"
 preserveAspectRatio="xMidYMid meet">

<g transform="translate(0.000000,31.000000) scale(0.100000,-0.100000)"
fill="#000000" stroke="none">
<path d="M768 252 c-3 -12 1 -18 12 -18 11 0 15 6 12 18 -2 10 -8 18 -12 18
-4 0 -10 -8 -12 -18z"/>
<path d="M50 198 c0 -18 -3 -44 -7 -56 -5 -21 -3 -23 18 -20 17 2 26 11 30 33
l7 30 1 -32 c1 -28 5 -33 27 -33 19 0 24 4 21 18 -3 9 -8 34 -12 55 -6 35 -8
37 -45 37 -38 0 -40 -1 -40 -32z"/>
<path d="M180 130 c0 -93 1 -100 20 -100 19 0 20 7 20 100 0 93 -1 100 -20
100 -19 0 -20 -7 -20 -100z"/>
<path d="M240 130 c0 -81 3 -100 15 -100 23 0 35 34 35 100 0 66 -12 100 -35
100 -12 0 -15 -19 -15 -100z"/>
<path d="M310 130 c0 -92 2 -100 19 -100 17 0 20 9 23 77 4 105 1 123 -23 123
-17 0 -19 -8 -19 -100z"/>
<path d="M370 130 c0 -75 3 -100 13 -100 27 0 37 25 37 96 0 85 -6 104 -31
104 -17 0 -19 -9 -19 -100z"/>
<path d="M450 130 c0 -93 1 -100 20 -100 19 0 20 7 20 100 0 93 -1 100 -20
100 -19 0 -20 -7 -20 -100z"/>
<path d="M527 223 c-9 -8 -9 -156 -1 -177 3 -9 15 -16 25 -16 17 0 19 9 19
100 0 90 -2 100 -18 100 -10 0 -22 -3 -25 -7z"/>
<path d="M582 198 c2 -22 9 -34 21 -36 15 -3 18 2 15 30 -2 22 -9 34 -21 36
-15 3 -18 -2 -15 -30z"/>
<path d="M630 215 c0 -8 7 -15 15 -15 12 0 15 -16 15 -85 0 -84 0 -85 25 -85
25 0 25 1 25 85 0 69 3 85 15 85 8 0 15 7 15 15 0 12 -13 15 -55 15 -42 0 -55
-3 -55 -15z"/>
<path d="M37 93 c-4 -3 -7 -19 -7 -35 0 -25 4 -29 23 -26 14 2 23 11 25 26 4
28 26 24 30 -6 2 -16 10 -22 28 -22 25 0 28 9 18 48 -6 19 -13 22 -58 22 -29
0 -56 -3 -59 -7z"/>
<path d="M580 64 c0 -28 3 -35 18 -32 11 2 18 14 20 36 3 27 0 32 -17 32 -17
0 -21 -6 -21 -36z"/>
</g>
</svg>
