<?xml version="1.0" standalone="no"?>
<!DOCTYPE svg PUBLIC "-//W3C//DTD SVG 20010904//EN"
 "http://www.w3.org/TR/2001/REC-SVG-20010904/DTD/svg10.dtd">
<svg version="1.0" xmlns="http://www.w3.org/2000/svg"
 width="137.000000pt" height="27.000000pt" viewBox="0 0 137.000000 27.000000"
 preserveAspectRatio="xMidYMid meet">

<g transform="translate(0.000000,27.000000) scale(0.100000,-0.100000)"
fill="#000000" stroke="none">
<path d="M73 237 c-4 -8 -15 -16 -25 -20 -9 -3 -19 -22 -23 -46 -7 -42 -2 -51
59 -99 16 -12 25 -22 20 -22 -5 0 -24 13 -42 29 -19 18 -32 24 -32 16 0 -20
61 -54 95 -52 43 3 97 38 92 59 -3 9 0 19 6 21 15 5 -12 97 -28 97 -7 0 -15 7
-19 15 -7 19 -92 21 -103 2z m91 -6 c3 -4 -15 -8 -39 -8 -25 0 -45 4 -45 8 0
5 18 9 39 9 22 0 42 -4 45 -9z m-119 -67 l-15 -39 6 35 c7 38 14 54 20 47 2
-2 -3 -21 -11 -43z m165 10 c7 -19 9 -38 6 -41 -3 -4 -6 0 -6 8 0 8 -7 26 -14
42 -8 15 -11 27 -6 27 5 0 14 -16 20 -36z m-57 -15 c7 -26 0 -46 -19 -53 -34
-13 -62 21 -44 55 15 26 56 25 63 -2z m32 -84 c-16 -13 -34 -24 -40 -24 -5 0
4 11 20 24 17 14 35 25 40 25 6 0 -3 -11 -20 -25z"/>
<path d="M104 156 c-7 -18 3 -36 20 -36 16 0 14 42 -2 48 -7 2 -15 -3 -18 -12z"/>
<path d="M316 174 c-20 -20 -20 -58 0 -78 27 -28 80 -16 87 20 3 20 0 24 -20
24 -20 0 -23 -4 -18 -21 6 -17 3 -20 -12 -17 -24 4 -31 56 -9 64 9 4 23 1 31
-6 12 -10 15 -9 15 7 0 24 -52 30 -74 7z"/>
<path d="M455 180 c-3 -5 -1 -10 4 -10 6 0 11 -16 11 -35 0 -19 -5 -35 -11
-35 -5 0 -8 -4 -5 -8 6 -10 42 -9 52 1 4 4 2 7 -4 7 -7 0 -12 7 -12 15 0 24
28 17 32 -7 3 -26 38 -32 46 -9 3 8 0 11 -7 7 -11 -7 -16 11 -12 48 1 11 -4
23 -11 28 -18 11 -76 10 -83 -2z m69 -19 c3 -5 0 -11 -8 -14 -15 -6 -26 1 -26
15 0 11 27 10 34 -1z"/>
<path d="M617 158 c3 -18 7 -35 9 -37 2 -2 -1 -10 -7 -18 -6 -7 -10 -13 -8
-14 34 -6 68 -7 82 -3 18 6 24 34 7 34 -5 0 -10 -4 -10 -10 0 -5 -9 -10 -20
-10 -12 0 -20 7 -20 16 0 10 6 14 15 10 10 -4 15 1 15 14 0 13 -5 18 -15 14
-8 -4 -15 -1 -15 5 0 15 33 14 49 -1 10 -11 12 -9 9 7 -2 16 -12 21 -50 23
l-48 3 7 -33z"/>
<path d="M760 180 c0 -5 5 -10 10 -10 6 0 10 -16 10 -35 0 -20 -5 -35 -12 -35
-15 0 -1 -13 16 -16 11 -1 13 6 9 32 -7 44 0 43 27 -2 25 -44 36 -36 43 29 3
35 1 47 -9 47 -17 0 -27 -17 -13 -22 6 -2 10 -13 7 -23 -3 -17 -6 -15 -23 13
-13 21 -27 32 -42 32 -13 0 -23 -4 -23 -10z"/>
<path d="M931 176 c-17 -20 -5 -40 32 -55 26 -11 28 -14 13 -18 -10 -3 -23 0
-29 6 -16 16 -26 13 -23 -6 2 -9 11 -18 22 -20 66 -11 92 44 32 67 -25 10 -29
14 -15 17 10 3 24 -1 32 -7 12 -10 15 -9 15 6 0 14 -8 20 -34 21 -19 2 -39 -3
-45 -11z"/>
<path d="M1078 179 c-12 -6 -18 -22 -18 -45 0 -27 5 -37 26 -46 55 -25 108 39
68 83 -19 21 -49 24 -76 8z m52 -19 c15 -28 3 -60 -21 -60 -15 0 -19 7 -19 34
0 29 5 37 27 45 1 1 7 -8 13 -19z"/>
<path d="M1215 136 c0 -44 3 -54 17 -53 13 1 15 9 11 37 l-5 35 22 -32 c29
-44 50 -43 50 1 0 19 3 41 6 50 4 12 0 16 -15 16 -22 0 -29 -16 -10 -22 6 -2
9 -15 7 -28 -3 -24 -4 -23 -25 13 -13 21 -30 37 -40 37 -15 0 -18 -9 -18 -54z"/>
</g>
</svg>
