<svg id="Группа_3" data-name="Группа 3" xmlns="http://www.w3.org/2000/svg" width="51" height="51" viewBox="0 0 51 51">
  <defs>
    <style>
      .cls-1 {
        fill: #fff;
        stroke: #b8a9a4;
        stroke-linejoin: round;
        stroke-width: 2px;
      }

      .cls-2 {
        fill: #b8a9a4;
        fill-rule: evenodd;
      }
    </style>
  </defs>
  <circle id="Ellipse_5_copy_2" data-name="Ellipse 5 copy 2" class="cls-1" cx="25.5" cy="25.5" r="24.5"/>
  <path class="cls-2" d="M676.916,891.169a8.307,8.307,0,0,1-2.4.659,4.194,4.194,0,0,0,1.834-2.315,8.336,8.336,0,0,1-2.649,1.016,4.171,4.171,0,0,0-7.217,2.863,4.212,4.212,0,0,0,.108.953,11.826,11.826,0,0,1-8.6-4.372,4.2,4.2,0,0,0,1.291,5.587,4.153,4.153,0,0,1-1.89-.523v0.052a4.183,4.183,0,0,0,3.346,4.1,4.167,4.167,0,0,1-1.884.072,4.179,4.179,0,0,0,3.9,2.906,8.394,8.394,0,0,1-6.176,1.732,11.856,11.856,0,0,0,18.264-10.025c0-.182,0-0.362-0.012-0.541A8.5,8.5,0,0,0,676.916,891.169Z" transform="translate(-641 -871)"/>
</svg>
