<svg id="Группа_2" data-name="Группа 2" xmlns="http://www.w3.org/2000/svg" width="51" height="51" viewBox="0 0 51 51">
  <defs>
    <style>
      .cls-1 {
        fill: #fff;
        stroke: #b8a9a4;
        stroke-linejoin: round;
        stroke-width: 2px;
      }

      .cls-2 {
        fill: #b8a9a4;
        fill-rule: evenodd;
      }
    </style>
  </defs>
  <circle id="Ellipse_5_copy" data-name="Ellipse 5 copy" class="cls-1" cx="25.5" cy="25.5" r="24.5"/>
  <path class="cls-2" d="M456.465,886a10.494,10.494,0,0,0-4.23,20.117,9.164,9.164,0,0,1,.183-2.411c0.2-.852,1.356-5.721,1.356-5.721a4.023,4.023,0,0,1-.337-1.662c0-1.556.9-2.718,2.032-2.718a1.409,1.409,0,0,1,1.422,1.576,22.531,22.531,0,0,1-.931,3.727,1.626,1.626,0,0,0,1.663,2.022c2,0,3.341-2.555,3.341-5.582,0-2.3-1.556-4.024-4.384-4.024a4.981,4.981,0,0,0-5.187,5.028,3.026,3.026,0,0,0,.694,2.06,0.506,0.506,0,0,1,.151.585c-0.05.193-.166,0.658-0.214,0.843a0.364,0.364,0,0,1-.528.262c-1.472-.6-2.157-2.2-2.157-4.011,0-2.983,2.524-6.559,7.53-6.559,4.023,0,6.67,2.9,6.67,6.015,0,4.119-2.3,7.2-5.685,7.2a3.024,3.024,0,0,1-2.574-1.309s-0.612,2.419-.741,2.886a8.8,8.8,0,0,1-1.061,2.25A10.506,10.506,0,1,0,456.465,886Z" transform="translate(-431 -871)"/>
</svg>
