<?xml version="1.0" standalone="no"?>
<!DOCTYPE svg PUBLIC "-//W3C//DTD SVG 20010904//EN"
 "http://www.w3.org/TR/2001/REC-SVG-20010904/DTD/svg10.dtd">
<svg version="1.0" xmlns="http://www.w3.org/2000/svg"
 width="35.000000pt" height="34.000000pt" viewBox="0 0 35.000000 34.000000"
 preserveAspectRatio="xMidYMid meet">

<g transform="translate(0.000000,34.000000) scale(0.100000,-0.100000)"
fill="#000000" stroke="none">
<path d="M104 321 c-48 -22 -80 -59 -96 -112 -21 -73 21 -156 96 -190 52 -23
90 -23 142 0 75 34 117 117 96 190 -16 53 -48 90 -96 112 -52 23 -90 23 -142
0z m152 -117 c-13 -49 -25 -72 -52 -93 -28 -22 -78 -27 -104 -11 -13 8 -12 10
3 10 20 0 21 4 6 32 -13 25 -23 78 -14 78 3 0 20 -7 37 -16 28 -15 31 -14 44
5 11 15 25 20 50 19 32 -1 35 -4 30 -24z"/>
</g>
</svg>
