<?xml version="1.0" standalone="no"?>
<!DOCTYPE svg PUBLIC "-//W3C//DTD SVG 20010904//EN"
 "http://www.w3.org/TR/2001/REC-SVG-20010904/DTD/svg10.dtd">
<svg version="1.0" xmlns="http://www.w3.org/2000/svg"
 width="35.000000pt" height="34.000000pt" viewBox="0 0 35.000000 34.000000"
 preserveAspectRatio="xMidYMid meet">

<g transform="translate(0.000000,34.000000) scale(0.100000,-0.100000)"
fill="#000000" stroke="none">
<path d="M104 321 c-48 -22 -80 -59 -96 -112 -21 -73 21 -156 96 -190 52 -23
90 -23 142 0 75 34 117 117 96 190 -16 53 -48 90 -96 112 -52 23 -90 23 -142
0z m109 -73 c33 -17 46 -39 47 -79 0 -38 -26 -71 -67 -83 -30 -9 -42 -1 -36
24 4 14 11 19 23 15 37 -12 67 54 38 83 -7 7 -26 12 -43 12 -17 0 -36 -5 -43
-12 -14 -14 -16 -58 -3 -58 5 0 7 8 4 18 -6 24 19 44 49 40 17 -2 24 -11 26
-32 4 -28 -14 -50 -31 -39 -5 3 -6 16 -3 29 4 14 2 24 -4 24 -12 0 -16 -10
-25 -64 l-6 -38 -25 23 c-17 16 -24 33 -24 58 1 70 65 111 123 79z"/>
</g>
</svg>
