<?xml version="1.0" standalone="no"?>
<!DOCTYPE svg PUBLIC "-//W3C//DTD SVG 20010904//EN"
 "http://www.w3.org/TR/2001/REC-SVG-20010904/DTD/svg10.dtd">
<svg version="1.0" xmlns="http://www.w3.org/2000/svg"
 width="35.000000pt" height="34.000000pt" viewBox="0 0 35.000000 34.000000"
 preserveAspectRatio="xMidYMid meet">

<g transform="translate(0.000000,34.000000) scale(0.100000,-0.100000)"
fill="#000000" stroke="none">
<path d="M104 321 c-48 -22 -80 -59 -96 -112 -21 -73 21 -156 96 -190 52 -23
90 -23 142 0 75 34 117 117 96 190 -16 53 -48 90 -96 112 -52 23 -90 23 -142
0z m112 -73 c4 -6 0 -16 -9 -23 -21 -15 -21 -23 0 -27 15 -3 15 -4 0 -19 -8
-9 -17 -34 -19 -55 -2 -27 -8 -40 -20 -42 -15 -3 -18 4 -18 42 0 25 -4 46 -10
46 -5 0 -10 7 -10 15 0 8 5 15 10 15 6 0 10 8 10 18 0 35 49 58 66 30z"/>
</g>
</svg>
