<?xml version="1.0" standalone="no"?>
<!DOCTYPE svg PUBLIC "-//W3C//DTD SVG 20010904//EN"
 "http://www.w3.org/TR/2001/REC-SVG-20010904/DTD/svg10.dtd">
<svg version="1.0" xmlns="http://www.w3.org/2000/svg"
 width="35.000000pt" height="34.000000pt" viewBox="0 0 35.000000 34.000000"
 preserveAspectRatio="xMidYMid meet">

<g transform="translate(0.000000,34.000000) scale(0.100000,-0.100000)"
fill="#000000" stroke="none">
<path d="M104 321 c-48 -22 -80 -59 -96 -112 -21 -73 21 -156 96 -190 52 -23
90 -23 142 0 75 34 117 117 96 190 -16 53 -48 90 -96 112 -52 23 -90 23 -142
0z m88 -93 c-2 -18 -9 -38 -13 -44 -6 -7 -4 -16 6 -24 8 -7 15 -23 15 -36 0
-29 -38 -47 -77 -38 -38 10 -41 34 -7 60 l29 24 -23 15 c-12 9 -22 21 -22 27
0 23 34 48 65 48 30 0 31 -2 27 -32z m54 -74 c-15 -14 -18 -14 -33 2 -13 13
-14 19 -5 22 6 2 12 11 12 20 0 13 4 11 21 -6 18 -20 19 -24 5 -38z"/>
<path d="M131 236 c-15 -18 -3 -46 20 -46 22 0 26 32 5 49 -10 8 -16 8 -25 -3z"/>
<path d="M125 137 c-24 -18 -11 -37 26 -37 22 0 29 5 29 19 0 10 -7 22 -16 25
-20 8 -17 8 -39 -7z"/>
</g>
</svg>
